<?xml version="1.0" encoding="utf-8"?>
<!-- Svg Vector Icons : http://www.onlinewebfonts.com/icon -->
<!DOCTYPE svg PUBLIC "-//W3C//DTD SVG 1.1//EN" "http://www.w3.org/Graphics/SVG/1.1/DTD/svg11.dtd">
<svg version="1.1" xmlns="http://www.w3.org/2000/svg" xmlns:xlink="http://www.w3.org/1999/xlink" x="0px" y="0px" viewBox="0 0 1000 1000" enable-background="new 0 0 1000 1000" xml:space="preserve">
<metadata> Svg Vector Icons : http://www.onlinewebfonts.com/icon </metadata>
<g>
  <g transform="translate(0.000000,511.000000) scale(0.100000,-0.100000)">
    <path fill="#C00000" d="M6014.5,2975c-57.3-20.5-143.3-57.3-194.5-83.9c-208.8-104.4-777.9-530.2-777.9-581.4c0-12.3,49.1-71.7,108.5-131l108.5-106.5l174,135.1c305,241.6,595.7,413.5,784.1,460.6c229.3,57.3,292.8-118.8,350.1-974.5c34.8-524.1,71.7-769.7,141.3-960.1c133.1-368.5,407.4-624.4,769.7-718.6c243.6-63.4,743.1-14.3,1050.2,104.4c36.8,12.3,34.8,8.2-4.1-69.6c-24.6-47.1-43-90.1-43-96.2c0-22.5,49.1-6.1,235.4,79.9l192.4,90.1l59.4-165.8c32.8-92.1,67.6-188.3,73.7-212.9c8.2-26.6,22.5-47.1,32.8-47.1c8.2,0,51.2,96.2,92.1,212.9l75.8,212.9l202.7-92.1c112.6-53.2,208.8-88,215-81.9c6.2,6.2-30.7,100.3-81.9,210.9c-51.2,108.5-92.1,200.6-90.1,202.7c4.1,2.1,96.2,36.8,206.8,75.7c110.5,38.9,202.7,79.9,204.7,90.1c0,10.2-75.7,47.1-172,79.8c-94.2,34.8-188.3,69.6-206.8,75.8c-32.7,12.3-24.6,36.8,59.4,221.1c51.2,112.6,90.1,210.9,83.9,217c-6.1,6.1-83.9-24.6-172-69.6c-253.8-126.9-243.6-126.9-292.8,10.2c-24.6,65.5-57.3,157.6-75.7,206.8c-18.4,47.1-38.9,86-49.1,86c-8.2,0-45.1-86-81.9-188.3c-36.9-104.4-73.7-198.6-83.9-208.8c-8.2-8.2-104.4,26.6-215,77.8c-108.5,51.2-204.7,90.1-210.9,83.9c-6.1-6.1,32.8-100.3,88-208.8c53.2-108.5,90.1-202.7,79.8-210.9c-8.2-10.2-98.3-45-200.6-81.9c-100.3-34.8-192.4-71.7-200.6-79.8c-10.2-10.2,22.5-32.8,71.7-53.2l88-36.8l-151.5-47.1c-208.8-65.5-429.9-98.3-577.3-83.9c-268.2,24.6-536.4,229.3-630.5,479.1c-86,233.4-104.4,360.3-165.8,1209.9c-43,601.9-147.4,855.7-399.2,968.3C6378.8,3024.1,6153.7,3024.1,6014.5,2975z"/>
    <path fill="#C00000" d="M3979.6,2434.5l-217-210.9l-225.2,75.7c-298.9,100.3-493.4,131-839.3,129c-739-2.1-1392.1-286.6-1889.5-816.8C454.3,1230.8,216.8,757.8,126.8,250.1c-43-239.5-32.8-706.3,20.5-956c215-1023.6,976.5-1799.5,1993.9-2039c260-59.4,863.9-63.5,1109.6-6.1c829.1,192.4,1463.7,691.9,1824,1431c174,356.2,253.8,716.5,253.8,1140.3c0,309.1-38.9,550.7-133.1,829.1L5128,854.1l202.7,204.7c208.8,212.9,243.6,274.3,212.9,393.1c-14.3,63.5-1044,1113.7-1140.3,1164.9c-30.7,16.4-90.1,28.6-131,28.6C4204.8,2645.3,4176.1,2624.9,3979.6,2434.5z"/>
  </g>
</g>
</svg>